<svg id="Layer_1" data-name="Layer 1" xmlns="http://www.w3.org/2000/svg" viewBox="0 0 512 264.83">
  <defs>
    <style>
      .cls-1 {
        fill: #504b5a;
      }

      .cls-2 {
        fill: #dcdbde;
      }

      .cls-3 {
        fill: #fedc32;
      }

      .cls-4 {
        fill: #736f7b;
      }

      .cls-5 {
        fill: #625d6b;
      }

      .cls-6 {
        fill: #a7a5ac;
      }

      .cls-7 {
        fill: #e5c22e;
      }
    </style>
  </defs>
  <title>motor-sports</title>
  <polygon class="cls-1" points="397.24 79.45 361.93 97.1 344.28 44.14 379.59 44.14 397.24 79.45"/>
  <ellipse class="cls-2" cx="414.9" cy="57.38" rx="17.65" ry="22.07"/>
  <path class="cls-3" d="M379.59,150.07h22.07a13.24,13.24,0,0,1,13.24,13.24v35.31a13.24,13.24,0,0,1-13.24,13.24h-4.41Z" transform="translate(0 -123.59)"/>
  <polygon class="cls-4" points="326.62 79.45 158.9 79.45 185.38 132.41 150.07 158.9 141.24 185.38 211.86 211.86 282.48 211.86 300.14 185.38 308.97 185.38 326.62 123.59 326.62 79.45"/>
  <path class="cls-1" d="M216.28,229.52H322.21a13.24,13.24,0,0,0,13.24-13.24h0A13.24,13.24,0,0,0,322.21,203H216.28A13.24,13.24,0,0,0,203,216.28h0A13.24,13.24,0,0,0,216.28,229.52Z" transform="translate(0 -123.59)"/>
  <path class="cls-5" d="M264.83,229.52l5.76,17.29a17.65,17.65,0,0,0,12.47,11.55L309,264.83l13.24-35.31H264.83Z" transform="translate(0 -123.59)"/>
  <path class="cls-3" d="M361.59,183l7.76,39.35a17.65,17.65,0,0,1-2.63,13.21l-44,66a17.65,17.65,0,0,1-13.86,7.84l-8.74.41V291.31l26.48-79.45Z" transform="translate(0 -123.59)"/>
  <path class="cls-1" d="M79.45,229.52A79.45,79.45,0,1,0,158.9,309,79.45,79.45,0,0,0,79.45,229.52Zm0,132.41a53,53,0,1,1,53-53A53,53,0,0,1,79.45,361.93Z" transform="translate(0 -123.59)"/>
  <circle class="cls-6" cx="79.45" cy="185.38" r="35.31"/>
  <g>
    <circle class="cls-1" cx="79.45" cy="185.38" r="17.65"/>
    <path class="cls-1" d="M432.55,229.52A79.45,79.45,0,1,0,512,309,79.45,79.45,0,0,0,432.55,229.52Zm0,132.41a53,53,0,1,1,53-53A53,53,0,0,1,432.55,361.93Z" transform="translate(0 -123.59)"/>
  </g>
  <circle class="cls-6" cx="432.55" cy="185.38" r="35.31"/>
  <circle class="cls-1" cx="432.55" cy="185.38" r="17.65"/>
  <g>
    <path class="cls-5" d="M432.55,317.8a8.85,8.85,0,0,1-8.34-5.91L365.53,144.2a4.41,4.41,0,0,0-4.16-3H344.28a8.83,8.83,0,1,1,0-17.66h17.09a22.09,22.09,0,0,1,20.83,14.77L440.89,306a8.84,8.84,0,0,1-8.34,11.75Z" transform="translate(0 -123.59)"/>
    <path class="cls-5" d="M79.46,317.79a8.83,8.83,0,0,1-3.71-16.84l114.76-53a8.83,8.83,0,0,1,7.4,16L83.15,317A8.8,8.8,0,0,1,79.46,317.79Z" transform="translate(0 -123.59)"/>
    <path class="cls-5" d="M247.17,203l-65.32,21.77a44.65,44.65,0,0,1-28.25,0l-77.09-25.7a15.51,15.51,0,0,1-9.81-19.62h0A15.51,15.51,0,0,1,83,169l164.21,16.42V203Z" transform="translate(0 -123.59)"/>
  </g>
  <path class="cls-3" d="M361.59,183h0a24.77,24.77,0,0,1-24.43,28.84H255a18.45,18.45,0,0,1-16.5-26.7l0-.08a18.45,18.45,0,0,1,13.7-10l81.15-12.49A24.77,24.77,0,0,1,361.59,183Z" transform="translate(0 -123.59)"/>
  <path class="cls-5" d="M274.49,344.28H224.67a79.28,79.28,0,0,1-27.9-5.06l-58.63-22a8.83,8.83,0,0,1,6.21-16.54l58.63,22a61.51,61.51,0,0,0,21.69,3.93h49.83a16.82,16.82,0,0,0,5.31-32.78L244.38,282A8.83,8.83,0,0,1,250,265.28l35.42,11.81a34.48,34.48,0,0,1-10.9,67.19Z" transform="translate(0 -123.59)"/>
  <circle class="cls-1" cx="233.93" cy="172.14" r="22.07"/>
  <circle class="cls-6" cx="225.1" cy="119.17" r="13.24"/>
  <circle class="cls-7" cx="337.65" cy="64" r="15.45"/>
</svg>
